<svg width="115" height="40" viewBox="0 0 115 40" fill="none" xmlns="http://www.w3.org/2000/svg">
<path d="M0 19.8077V39.6154H22.8266H45.6533V37.9808V36.3461H24.0787H2.50419V20V3.65385H57.5H112.496V21.7308V39.8077H113.748H115V19.9038V0H57.5H0V19.8077Z" fill="black"/>
<path d="M17.9146 19.9423C15.8727 24.6923 14.1583 28.6346 14.1198 28.7115C14.062 28.7884 14.8325 28.8269 15.7956 28.8077L17.5678 28.75L18.3576 26.7692L19.1281 24.8077H22.9037H26.6792L27.4883 26.7692L28.2781 28.75L30.0503 28.8077C31.6876 28.8654 31.8225 28.8269 31.7069 28.5192C31.6298 28.3269 29.9539 24.3846 27.9699 19.7692L24.3677 11.3462H23H21.6516L17.9146 19.9423ZM24.3291 18.75L25.562 22.0192L22.9615 22.0769C21.536 22.0961 20.3417 22.0961 20.3032 22.0577C20.2647 22.0192 20.8233 20.4808 21.536 18.6154C22.2487 16.75 22.8844 15.2692 22.9615 15.3461C23.0193 15.4231 23.6357 16.9423 24.3291 18.75Z" fill="black"/>
<path d="M33.9028 20.0962V28.8462H39.2002H44.4975V27.5V26.1539H40.7412H36.9849V18.75V11.3462H35.4439H33.9028V20.0962Z" fill="black"/>
<path d="M46.6165 20.0962V28.8462H51.9138H57.2111V27.5V26.1539H53.4548H49.6985V18.75V11.3462H48.1575H46.6165V20.0962Z" fill="black"/>
<path d="M73.9698 20.0962V28.8462H75.5109H77.052V20.0962V11.3462H75.5109H73.9698V20.0962Z" fill="black"/>
<path d="M80.9045 20.0962V28.8462H82.4456H83.9866V22.1731C83.9866 16.5577 84.0252 15.5385 84.237 15.7692C84.3911 15.9231 86.356 18.9423 88.6097 22.4423L92.7128 28.8462H94.6969H96.7002V20.0962V11.3462H95.1592H93.6181V17.8077C93.6181 21.3462 93.5603 24.2115 93.4833 24.1731C93.387 24.1154 91.4607 21.2115 89.1876 17.7115L85.0461 11.3462H82.9849H80.9045V20.0962Z" fill="black"/>
<path d="M60.6785 36.9231V40H61.16C61.449 40 61.6416 39.8846 61.6416 39.7115C61.6416 39.4808 61.7187 39.4808 62.181 39.75C62.913 40.1731 64.0109 39.9615 64.5503 39.2692C64.8778 38.8462 64.9356 38.5577 64.8585 37.8269C64.82 37.3269 64.6273 36.75 64.4347 36.5385C63.9339 36 62.8359 35.8269 62.181 36.2115L61.6416 36.5192V35.1923C61.6416 33.8846 61.6223 33.8462 61.16 33.8462H60.6785V36.9231ZM63.6064 37.25C64.0302 37.6346 64.0495 38.2308 63.6257 38.6923C63.0093 39.3846 61.6416 38.9231 61.6416 38.0192C61.6416 37.0769 62.8744 36.5769 63.6064 37.25Z" fill="black"/>
<path d="M47.7722 37.1346V40.0385L49.5251 39.9615C51.1625 39.8846 51.3359 39.8462 51.7404 39.3462C51.9908 39.0577 52.2027 38.6346 52.2027 38.4039C52.2027 37.8462 51.6826 37.1154 51.2973 37.1154C51.0277 37.1154 51.0469 37.0385 51.3744 36.6731C51.856 36.1731 51.933 35.8462 51.7596 35.1539C51.5863 34.5 50.7965 34.2308 49.1014 34.2308H47.7722V37.1346ZM50.6809 35.5C51.0854 35.9808 50.6617 36.4423 49.7178 36.5C48.928 36.5577 48.928 36.5577 48.928 35.8846C48.928 35.2115 48.9473 35.1923 49.6792 35.1923C50.1223 35.1923 50.5268 35.3077 50.6809 35.5ZM50.7387 37.6154C51.1047 37.75 51.1432 38.4808 50.8158 38.8077C50.6809 38.9423 50.2186 39.0385 49.7563 39.0385H48.928V38.2692C48.928 37.5 48.928 37.5 49.6792 37.5C50.103 37.5 50.5653 37.5577 50.7387 37.6154Z" fill="black"/>
<path d="M81.3283 34.4231C81.0972 34.5192 80.789 34.8269 80.6734 35.1154C80.4808 35.5384 80.5 35.7115 80.7697 36.1923C81.0972 36.7692 81.0972 36.7692 80.5193 37.3077C79.8258 37.9615 79.768 38.6346 80.3844 39.3269C80.9431 39.9808 82.1567 40.1731 83.0428 39.7308C83.6014 39.4615 83.6977 39.4615 83.9867 39.7115C84.16 39.8654 84.6031 40 84.9498 40H85.6048L84.9498 39.3269L84.2949 38.6538L84.815 37.9423L85.3351 37.2115L84.815 37.1538C84.449 37.0961 84.1985 37.2115 83.9481 37.5385L83.6014 37.9808L83.2354 37.5C82.8501 37.0192 82.8501 37.0192 83.3317 36.5192C83.8518 35.9808 83.9481 34.9808 83.5051 34.6154C83.1391 34.3077 81.8677 34.1923 81.3283 34.4231ZM82.7731 35.5C82.9272 35.8846 82.619 36.4231 82.1952 36.5C81.7714 36.5961 81.3861 35.8269 81.6943 35.4615C82.0026 35.0961 82.619 35.1154 82.7731 35.5ZM82.7345 38.75C81.6366 39.5577 80.5193 38.4615 81.4247 37.4615C81.7329 37.1154 81.7714 37.1154 82.4263 37.7692C83.0813 38.4423 83.1005 38.4615 82.7345 38.75Z" fill="black"/>
<path d="M88.8022 37.1154V40H89.2838C89.7461 40 89.7461 40 89.8039 37.7692L89.8617 35.5192L90.6515 37.7115C91.7688 40.7692 91.9421 40.7692 93.0979 37.6538L93.984 35.2885L94.0033 37.6346V40H94.4849H94.9664V37.1154V34.2308H94.2152H93.4447L92.7127 36.1538C92.3081 37.2115 91.9229 38.0769 91.8651 38.0769C91.8073 38.0769 91.422 37.2115 91.0175 36.1538L90.3048 34.2308H89.5535H88.8022V37.1154Z" fill="black"/>
<path d="M54.0327 36.0961C53.397 36.25 53.1273 36.5577 53.3777 36.8461C53.5319 37.0385 53.686 37.0577 53.9364 36.9231C54.418 36.6538 55.15 36.6731 55.4389 36.9615C55.8049 37.3269 55.7086 37.5 55.1307 37.5C54.3987 37.5 53.32 37.8269 53.1273 38.1154C52.6072 38.9423 53.2814 40 54.3216 40C54.5913 40 55.0151 39.8654 55.2463 39.6923C55.6315 39.4231 55.6701 39.4231 55.6701 39.6923C55.6701 39.8654 55.8434 40 56.0553 40C56.4021 40 56.4406 39.8654 56.4406 38.4038C56.4406 37.5385 56.3635 36.7308 56.2865 36.6154C55.9205 36.0769 55.0151 35.8654 54.0327 36.0961ZM55.6701 38.4423C55.6701 38.7885 55.0536 39.2308 54.5913 39.2308C54.052 39.2308 53.7437 38.6923 54.1483 38.4423C54.5143 38.2115 55.6701 38.2308 55.6701 38.4423Z" fill="black"/>
<path d="M57.5963 37.9808V40H58.0779C58.5402 40 58.5595 39.9615 58.5595 38.7885C58.5595 37.4423 58.8869 36.9231 59.6767 36.9231C60.0042 36.9231 60.1005 36.8077 60.1005 36.4423C60.1005 35.8846 59.6382 35.8077 58.9833 36.2692C58.598 36.5384 58.5595 36.5384 58.5595 36.2692C58.5595 36.0769 58.3861 35.9615 58.0779 35.9615H57.5963V37.9808Z" fill="black"/>
<path d="M67.1123 36.1538C65.8601 36.6538 65.5134 38.25 66.438 39.2692C66.9389 39.8269 67.1123 39.9039 67.9791 39.9039C68.634 39.9039 69.0578 39.8077 69.289 39.5769C69.8091 39.0385 69.366 38.75 68.4992 39.0577C67.9791 39.25 67.7094 39.25 67.3241 39.0769C66.438 38.6731 66.7848 38.4615 68.3836 38.4615C69.7513 38.4615 69.9247 38.4231 69.9247 38.0962C69.9247 36.5384 68.5377 35.5769 67.1123 36.1538ZM68.7304 37.25C69 37.6923 69 37.6923 67.9213 37.6923C66.7463 37.6923 66.6692 37.6154 67.17 37.0769C67.5938 36.6154 68.3451 36.6923 68.7304 37.25Z" fill="black"/>
<path d="M70.6952 37.9808V40H71.1768C71.6391 40 71.6583 39.9615 71.6583 38.7885C71.6583 37.4423 71.9858 36.9231 72.7756 36.9231C73.103 36.9231 73.1993 36.8077 73.1993 36.4423C73.1993 35.8846 72.737 35.8077 72.0821 36.2692C71.6969 36.5384 71.6583 36.5384 71.6583 36.2692C71.6583 36.0769 71.485 35.9615 71.1768 35.9615H70.6952V37.9808Z" fill="black"/>
<path d="M74.3551 36.1923C73.6809 36.5577 73.5846 37.5385 74.201 37.9615C74.4322 38.1346 74.8175 38.2692 75.0486 38.2692C75.5302 38.2692 75.9925 38.7308 75.7999 39.0385C75.6458 39.3077 75.0101 39.2885 74.567 39C74.2781 38.8269 74.124 38.8269 73.8736 39.0385C73.5846 39.2692 73.5846 39.3269 73.8736 39.5962C74.3166 40.0385 75.9347 40 76.4548 39.5385C77.2639 38.8077 76.8786 37.9808 75.5495 37.5962C75.1642 37.4808 74.8367 37.2885 74.7789 37.1539C74.6634 36.8077 75.3183 36.6346 75.7613 36.9039C76.0696 37.1154 76.1851 37.0962 76.4356 36.8462C76.6667 36.6346 76.686 36.4808 76.5319 36.3269C76.2044 36 74.8945 35.9231 74.3551 36.1923Z" fill="black"/>
<path d="M97.3552 36.1538C96.1416 36.6346 95.7756 38.2115 96.6232 39.2115C97.4707 40.2308 99.3585 40.1731 100.052 39.1346C100.437 38.5385 100.437 37.4231 100.052 36.8269C99.5704 36.0962 98.2798 35.7692 97.3552 36.1538ZM99.0503 37.25C99.4741 37.6346 99.4933 38.2308 99.0696 38.6923C98.4531 39.3846 97.0855 38.9231 97.0855 38.0192C97.0855 37.0769 98.3183 36.5769 99.0503 37.25Z" fill="black"/>
<path d="M101.323 37.9808V40H101.805C102.267 40 102.286 39.9615 102.286 38.7885C102.286 37.4423 102.614 36.9231 103.404 36.9231C103.731 36.9231 103.827 36.8077 103.827 36.4423C103.827 35.8846 103.365 35.8077 102.71 36.2692C102.325 36.5384 102.286 36.5384 102.286 36.2692C102.286 36.0769 102.113 35.9615 101.805 35.9615H101.323V37.9808Z" fill="black"/>
<path d="M105.445 36.1538C104.193 36.6538 103.847 38.25 104.771 39.2692C105.272 39.8269 105.445 39.9039 106.312 39.9039C106.967 39.9039 107.391 39.8077 107.622 39.5769C108.142 39.0385 107.699 38.75 106.832 39.0577C106.312 39.25 106.043 39.25 105.657 39.0769C104.771 38.6731 105.118 38.4615 106.717 38.4615C108.085 38.4615 108.258 38.4231 108.258 38.0962C108.258 36.5384 106.871 35.5769 105.445 36.1538ZM107.064 37.25C107.333 37.6923 107.333 37.6923 106.255 37.6923C105.08 37.6923 105.002 37.6154 105.503 37.0769C105.927 36.6154 106.678 36.6923 107.064 37.25Z" fill="black"/>
</svg>
