<svg width="86" height="30" viewBox="0 0 86 30" fill="none" xmlns="http://www.w3.org/2000/svg">
<g clip-path="url(#clip0)">
<path d="M0 14.8564V29.7122H17.0602H34.1205V28.4863V27.2603H17.996H1.87159V15.0007V2.74104H42.9745H84.0775V16.2987V29.8564H85.0133H85.9491V14.9285V0.000652313H42.9745H0V14.8564Z" fill="black"/>
<path d="M13.389 14.9571C11.8629 18.5196 10.5816 21.4763 10.5528 21.534C10.5096 21.5917 11.0855 21.6206 11.8053 21.6061L13.1299 21.5629L13.7201 20.0773L14.296 18.6061H17.1178H19.9396L20.5443 20.0773L21.1345 21.5629L22.459 21.6061C23.6828 21.6494 23.7836 21.6206 23.6972 21.3898C23.6396 21.2456 22.3871 18.2888 20.9042 14.8273L18.212 8.51001H17.1898H16.182L13.389 14.9571ZM18.1832 14.0629L19.1046 16.5148L17.161 16.5581C16.0956 16.5725 15.203 16.5725 15.1742 16.5436C15.1454 16.5148 15.5629 15.361 16.0956 13.9619C16.6283 12.5629 17.1034 11.4523 17.161 11.51C17.2042 11.5677 17.6649 12.7071 18.1832 14.0629Z" fill="black"/>
<path d="M25.3384 15.0723V21.6348H29.2975H33.2567V20.6252V19.6155H30.4493H27.6419V14.0626V8.50976H26.4901H25.3384V15.0723Z" fill="black"/>
<path d="M34.8403 15.0723V21.6348H38.7994H42.7585V20.6252V19.6155H39.9512H37.1438V14.0626V8.50976H35.9921H34.8403V15.0723Z" fill="black"/>
<path d="M55.2839 15.0723V21.6348H56.4357H57.5874V15.0723V8.50976H56.4357H55.2839V15.0723Z" fill="black"/>
<path d="M60.4668 15.0723V21.6348H61.6185H62.7703V16.63C62.7703 12.4184 62.7991 11.654 62.9574 11.8271C63.0726 11.9425 64.5411 14.2069 66.2255 16.8319L69.292 21.6348H70.7749H72.2721V15.0723V8.50976H71.1204H69.9687V13.3559C69.9687 16.0098 69.9255 18.1588 69.8679 18.13C69.7959 18.0867 68.3562 15.9088 66.6574 13.2838L63.5621 8.50976H62.0216H60.4668V15.0723Z" fill="black"/>
<path d="M45.3499 27.6923V30H45.7098C45.9257 30 46.0697 29.9135 46.0697 29.7837C46.0697 29.6106 46.1273 29.6106 46.4728 29.8125C47.0199 30.1298 47.8405 29.9712 48.2436 29.4519C48.4884 29.1346 48.5316 28.9183 48.474 28.3702C48.4452 27.9952 48.3012 27.5625 48.1572 27.4039C47.7829 27 46.9623 26.8702 46.4728 27.1587L46.0697 27.3894V26.3943C46.0697 25.4135 46.0553 25.3846 45.7098 25.3846H45.3499V27.6923ZM47.5382 27.9375C47.8549 28.226 47.8693 28.6731 47.5526 29.0192C47.0919 29.5385 46.0697 29.1923 46.0697 28.5144C46.0697 27.8077 46.9911 27.4327 47.5382 27.9375Z" fill="black"/>
<path d="M35.7041 27.8514V30.0293L37.0142 29.9716C38.238 29.9139 38.3675 29.8851 38.6699 29.5101C38.857 29.2937 39.0154 28.9764 39.0154 28.8033C39.0154 28.3851 38.6267 27.837 38.3387 27.837C38.1372 27.837 38.1516 27.7793 38.3963 27.5053C38.7562 27.1303 38.8138 26.8851 38.6843 26.3659C38.5547 25.8755 37.9644 25.6735 36.6975 25.6735H35.7041V27.8514ZM37.878 26.6255C38.1804 26.986 37.8636 27.3322 37.1582 27.3755C36.5679 27.4187 36.5679 27.4187 36.5679 26.9139C36.5679 26.4091 36.5823 26.3947 37.1294 26.3947C37.4605 26.3947 37.7629 26.4812 37.878 26.6255ZM37.9212 28.212C38.1948 28.313 38.2236 28.861 37.9788 29.1062C37.878 29.2072 37.5325 29.2793 37.187 29.2793H36.5679V28.7024C36.5679 28.1255 36.5679 28.1255 37.1294 28.1255C37.4461 28.1255 37.7916 28.1687 37.9212 28.212Z" fill="black"/>
<path d="M60.7834 25.8173C60.6106 25.8894 60.3803 26.1202 60.2939 26.3366C60.15 26.6539 60.1644 26.7837 60.3659 27.1442C60.6106 27.5769 60.6106 27.5769 60.1788 27.9808C59.6605 28.4712 59.6173 28.976 60.078 29.4952C60.4955 29.9856 61.4024 30.1298 62.0647 29.7981C62.4822 29.5962 62.5542 29.5962 62.7701 29.7837C62.8997 29.899 63.2308 30 63.4899 30H63.9794L63.4899 29.4952L63.0004 28.9904L63.3891 28.4567L63.7779 27.9087L63.3891 27.8654C63.1156 27.8221 62.9285 27.9087 62.7413 28.1539L62.4822 28.4856L62.2086 28.125C61.9207 27.7644 61.9207 27.7644 62.2806 27.3894C62.6693 26.9856 62.7413 26.2356 62.4102 25.9616C62.1367 25.7308 61.1865 25.6442 60.7834 25.8173ZM61.8631 26.625C61.9783 26.9135 61.748 27.3173 61.4312 27.375C61.1145 27.4471 60.8266 26.8702 61.0569 26.5962C61.2873 26.3221 61.748 26.3366 61.8631 26.625ZM61.8343 29.0625C61.0137 29.6683 60.1788 28.8462 60.8554 28.0962C61.0857 27.8365 61.1145 27.8365 61.604 28.3269C62.0935 28.8317 62.1079 28.8462 61.8343 29.0625Z" fill="black"/>
<path d="M66.3694 27.8366V30H66.7293C67.0748 30 67.0748 30 67.118 28.3269L67.1612 26.6394L67.7515 28.2837C68.5865 30.5769 68.716 30.5769 69.5799 28.2404L70.2421 26.4664L70.2565 28.226V30H70.6164H70.9763V27.8366V25.6731H70.4149H69.839L69.2919 27.1154C68.9896 27.9087 68.7017 28.5577 68.6585 28.5577C68.6153 28.5577 68.3273 27.9087 68.025 27.1154L67.4923 25.6731H66.9309H66.3694V27.8366Z" fill="black"/>
<path d="M40.3831 27.0722C39.908 27.1875 39.7065 27.4183 39.8936 27.6346C40.0088 27.7789 40.124 27.7933 40.3111 27.6923C40.6711 27.4904 41.2181 27.5048 41.4341 27.7212C41.7076 27.9952 41.6356 28.125 41.2037 28.125C40.6567 28.125 39.8504 28.3702 39.7065 28.5866C39.3178 29.2067 39.8216 30 40.5991 30C40.8006 30 41.1174 29.899 41.2901 29.7692C41.5781 29.5673 41.6068 29.5673 41.6068 29.7692C41.6068 29.899 41.7364 30 41.8948 30C42.1539 30 42.1827 29.899 42.1827 28.8029C42.1827 28.1539 42.1251 27.5481 42.0675 27.4616C41.794 27.0577 41.1174 26.8991 40.3831 27.0722ZM41.6068 28.8317C41.6068 29.0914 41.1462 29.4231 40.8006 29.4231C40.3975 29.4231 40.1672 29.0192 40.4695 28.8317C40.743 28.6587 41.6068 28.6731 41.6068 28.8317Z" fill="black"/>
<path d="M43.0466 28.4856V30H43.4065C43.7521 30 43.7665 29.9712 43.7665 29.0914C43.7665 28.0817 44.0112 27.6923 44.6015 27.6923C44.8462 27.6923 44.9182 27.6058 44.9182 27.3318C44.9182 26.9135 44.5727 26.8558 44.0832 27.2019C43.7953 27.4039 43.7665 27.4039 43.7665 27.2019C43.7665 27.0577 43.6369 26.9712 43.4065 26.9712H43.0466V28.4856Z" fill="black"/>
<path d="M50.1586 27.1162C49.2228 27.4912 48.9636 28.6883 49.6547 29.4527C50.029 29.871 50.1586 29.9287 50.8064 29.9287C51.2959 29.9287 51.6126 29.8566 51.7854 29.6835C52.1741 29.2797 51.843 29.0633 51.1951 29.2941C50.8064 29.4383 50.6049 29.4383 50.3169 29.3085C49.6547 29.0056 49.9138 28.847 51.1087 28.847C52.1309 28.847 52.2605 28.8181 52.2605 28.5729C52.2605 27.4046 51.2239 26.6835 50.1586 27.1162ZM51.3679 27.9383C51.5694 28.27 51.5694 28.27 50.7632 28.27C49.885 28.27 49.8274 28.2123 50.2018 27.8085C50.5185 27.4623 51.08 27.52 51.3679 27.9383Z" fill="black"/>
<path d="M52.8364 28.4856V30H53.1963C53.5419 30 53.5562 29.9712 53.5562 29.0914C53.5562 28.0817 53.801 27.6923 54.3912 27.6923C54.636 27.6923 54.708 27.6058 54.708 27.3318C54.708 26.9135 54.3625 26.8558 53.873 27.2019C53.585 27.4039 53.5562 27.4039 53.5562 27.2019C53.5562 27.0577 53.4267 26.9712 53.1963 26.9712H52.8364V28.4856Z" fill="black"/>
<path d="M55.5717 27.1445C55.0678 27.4186 54.9958 28.1541 55.4565 28.4714C55.6293 28.6012 55.9172 28.7022 56.09 28.7022C56.45 28.7022 56.7955 29.0483 56.6515 29.2791C56.5363 29.481 56.0612 29.4666 55.7301 29.2503C55.5141 29.1205 55.3989 29.1205 55.2118 29.2791C54.9958 29.4522 54.9958 29.4955 55.2118 29.6974C55.5429 30.0291 56.7523 30.0003 57.141 29.6541C57.7457 29.106 57.4578 28.4859 56.4643 28.1974C56.1764 28.1109 55.9316 27.9666 55.8885 27.8657C55.8021 27.6061 56.2916 27.4762 56.6227 27.6782C56.8531 27.8368 56.9395 27.8224 57.1266 27.6349C57.2994 27.4762 57.3138 27.3609 57.1986 27.2455C56.9539 27.0003 55.9748 26.9426 55.5717 27.1445Z" fill="black"/>
<path d="M72.7617 27.1162C71.8547 27.4768 71.5811 28.6595 72.2146 29.4095C72.8481 30.1739 74.259 30.1306 74.7773 29.3518C75.0652 28.9047 75.0652 28.0681 74.7773 27.621C74.4173 27.0729 73.4527 26.8277 72.7617 27.1162ZM74.0286 27.9383C74.3453 28.2268 74.3597 28.6739 74.043 29.02C73.5823 29.5393 72.5601 29.1931 72.5601 28.5152C72.5601 27.8085 73.4815 27.4335 74.0286 27.9383Z" fill="black"/>
<path d="M75.7273 28.4856V30H76.0872C76.4328 30 76.4472 29.9712 76.4472 29.0914C76.4472 28.0817 76.6919 27.6923 77.2822 27.6923C77.5269 27.6923 77.5989 27.6058 77.5989 27.3318C77.5989 26.9135 77.2534 26.8558 76.7639 27.2019C76.4759 27.4039 76.4472 27.4039 76.4472 27.2019C76.4472 27.0577 76.3176 26.9712 76.0872 26.9712H75.7273V28.4856Z" fill="black"/>
<path d="M78.8084 27.1162C77.8727 27.4912 77.6135 28.6883 78.3046 29.4527C78.6789 29.871 78.8084 29.9287 79.4563 29.9287C79.9457 29.9287 80.2624 29.8566 80.4352 29.6835C80.8239 29.2797 80.4928 29.0633 79.845 29.2941C79.4563 29.4383 79.2547 29.4383 78.9668 29.3085C78.3046 29.0056 78.5637 28.847 79.7586 28.847C80.7807 28.847 80.9103 28.8181 80.9103 28.5729C80.9103 27.4046 79.8737 26.6835 78.8084 27.1162ZM80.0177 27.9383C80.2193 28.27 80.2193 28.27 79.4131 28.27C78.5349 28.27 78.4773 28.2123 78.8516 27.8085C79.1683 27.4623 79.7298 27.52 80.0177 27.9383Z" fill="black"/>
</g>
<defs>
<clipPath id="clip0">
<rect width="85.9491" height="30" fill="white"/>
</clipPath>
</defs>
</svg>
